<svg width="18" height="39" viewBox="0 0 18 39" fill="none" xmlns="http://www.w3.org/2000/svg">
<path fill-rule="evenodd" clip-rule="evenodd" d="M8 38.8079L8 0.807892L10 0.807892L10 38.8079L8 38.8079Z" fill="#0C0C0C"/>
<path fill-rule="evenodd" clip-rule="evenodd" d="M18 30.8079C15.8783 30.8079 13.8434 31.6507 12.3431 33.151C10.8429 34.6513 10 36.6862 10 38.8079H8C8 36.1557 9.05357 33.6122 10.9289 31.7368C12.8043 29.8615 15.3478 28.8079 18 28.8079V30.8079Z" fill="#0C0C0C"/>
<path fill-rule="evenodd" clip-rule="evenodd" d="M0 30.8079C2.12173 30.8079 4.15656 31.6507 5.65685 33.151C7.15715 34.6513 8 36.6862 8 38.8079H10C10 36.1557 8.94643 33.6122 7.07107 31.7368C5.1957 29.8615 2.65216 28.8079 0 28.8079V30.8079Z" fill="#0C0C0C"/>
</svg>
