<svg width="24" height="24" viewBox="0 0 24 24" fill="none" xmlns="http://www.w3.org/2000/svg">
<path d="M5.95215 3.9978C3.91815 3.9978 2.32617 4.5118 2.04517 6.46679C1.95517 7.09279 2.15315 7.70881 2.60816 8.1538C2.83416 8.3748 3.07316 8.6378 3.38916 8.9038C4.18216 9.5728 5.19317 10.3248 6.13917 10.9978C8.74217 12.8478 10.7972 13.9978 12.0142 13.9978C13.2312 13.9978 15.2862 12.8478 17.8892 10.9978C18.8362 10.3248 19.8472 9.5718 20.6392 8.9038C20.9552 8.6378 21.1942 8.3758 21.4202 8.1538C21.8752 7.70881 22.0732 7.09279 21.9832 6.46679C21.7022 4.5118 20.1102 3.9978 18.0762 3.9978H5.95215ZM2.01416 10.1538V15.9978C2.01416 18.2068 3.80516 19.9978 6.01417 19.9978H18.0142C20.2232 19.9978 22.0142 18.2068 22.0142 15.9978V10.1538C21.1942 10.9328 20.2782 11.7368 18.9832 12.6538C16.1472 14.6618 13.6002 15.9978 12.0142 15.9978C10.4282 15.9978 7.88118 14.6618 5.04517 12.6538C3.74917 11.7368 2.83416 10.9328 2.01416 10.1538Z" fill="#B4B7BB"/>
</svg>
