<svg width="24" height="24" viewBox="0 0 24 24" fill="none" xmlns="http://www.w3.org/2000/svg">
<path d="M6.92871 2.92969C5.24071 2.92969 2.99072 5.17968 2.99072 6.86768C2.99072 9.04168 5.24072 13.0547 7.49072 15.3047C7.73272 15.5467 8.37372 16.1877 8.61572 16.4297C10.8657 18.6797 14.8787 20.9297 17.0527 20.9297C18.7407 20.9297 20.9907 18.6797 20.9907 16.9917C20.9907 15.3047 18.7407 13.0547 17.0527 13.0547C16.4907 13.0547 14.4557 14.2187 14.2407 14.1797C12.4467 13.8557 10.1157 11.4667 9.74072 9.67969C9.68872 9.43069 10.8657 7.42968 10.8657 6.86768C10.8657 5.17968 8.61571 2.92969 6.92871 2.92969Z" fill="#B4B7BB"/>
</svg>
